HIERARCHY
ROOT Hips
{
    OFFSET 0.000000 0.000000 0.000000
    CHANNELS 6 Xposition Yposition Zposition Zrotation Xrotation Yrotation
    JOINT Spine
    {
        OFFSET -0.000000 7.925200 0.000000
        CHANNELS 3 Zrotation Xrotation Yrotation
        JOINT Spine1
        {
            OFFSET -0.000000 23.364719 0.000000
            CHANNELS 3 Zrotation Xrotation Yrotation
            JOINT Neck
            {
                OFFSET -0.000000 23.268766 2.115342
                CHANNELS 3 Zrotation Xrotation Yrotation
                JOINT Head
                {
                    OFFSET -0.000000 13.530829 -1.932976
                    CHANNELS 3 Zrotation Xrotation Yrotation
                    End Site
                    {
                        OFFSET -0.000000 24.162195 0.000000
                    }
                }
            }
            JOINT LeftShoulder
            {
                OFFSET 3.858291 22.792089 -0.033814
                CHANNELS 3 Zrotation Xrotation Yrotation
                JOINT LeftArm
                {
                    OFFSET 7.057024 0.000000 0.000000
                    CHANNELS 3 Zrotation Xrotation Yrotation
                    JOINT LeftForeArm
                    {
                        OFFSET 34.734173 0.000000 0.000000
                        CHANNELS 3 Zrotation Xrotation Yrotation
                        JOINT LeftHand
                        {
                            OFFSET 23.943203 0.000000 0.000000
                            CHANNELS 3 Zrotation Xrotation Yrotation
                            End Site
                            {
                                OFFSET 14.497317 0.000000 0.000000
                            }
                        }
                    }
                }
            }
            JOINT RightShoulder
            {
                OFFSET -3.868823 22.792089 -0.033814
                CHANNELS 3 Zrotation Xrotation Yrotation
                JOINT RightArm
                {
                    OFFSET -7.057024 0.000000 0.000000
                    CHANNELS 3 Zrotation Xrotation Yrotation
                    JOINT RightForeArm
                    {
                        OFFSET -34.734173 0.000000 0.000000
                        CHANNELS 3 Zrotation Xrotation Yrotation
                        JOINT RightHand
                        {
                            OFFSET -23.943203 0.000000 0.000000
                            CHANNELS 3 Zrotation Xrotation Yrotation
                            End Site
                            {
                                OFFSET -14.497317 0.000000 0.000000
                            }
                        }
                    }
                }
            }
        }
    }
    JOINT LeftUpLeg
    {
        OFFSET 9.664878 0.000000 0.000000
        CHANNELS 3 Zrotation Xrotation Yrotation
        JOINT LeftLeg
        {
            OFFSET -0.000000 -38.728706 0.000000
            CHANNELS 3 Zrotation Xrotation Yrotation
            JOINT LeftFoot
            {
                OFFSET -0.000000 -40.242161 0.000000
                CHANNELS 3 Zrotation Xrotation Yrotation
                JOINT LeftToeBase
                {
                    OFFSET -0.000000 -6.282171 14.497317
                    CHANNELS 3 Zrotation Xrotation Yrotation
                    End Site
                    {
                        OFFSET -0.000000 0.000000 3.865951
                    }
                }
            }
        }
    }
    JOINT RightUpLeg
    {
        OFFSET -9.664878 0.000000 0.000000
        CHANNELS 3 Zrotation Xrotation Yrotation
        JOINT RightLeg
        {
            OFFSET -0.000000 -38.728706 0.000000
            CHANNELS 3 Zrotation Xrotation Yrotation
            JOINT RightFoot
            {
                OFFSET -0.000000 -40.242161 0.000000
                CHANNELS 3 Zrotation Xrotation Yrotation
                JOINT RightToeBase
                {
                    OFFSET -0.000000 -6.282171 14.497317
                    CHANNELS 3 Zrotation Xrotation Yrotation
                    End Site
                    {
                        OFFSET -0.000000 0.000000 3.865951
                    }
                }
            }
        }
    }
}
MOTION
Frames:    5
Frame Time:    0.008333
36.521111    88.025993    25.603178    1.490152    -4.763997    92.851303    2.870219    -3.977255    -3.604668    1.432805    12.434128    -3.860498    -2.438880    12.519321    7.246680    -2.757665    -2.724392    7.171414    -2.355546    4.604253    2.210216    -18.929024    65.714943    -38.407406    10.811270    -15.109188    -36.017303    -9.421030    -11.508447    -2.116295    0.985381    7.290384    5.939087    28.178831    56.796371    36.769501    -3.808439    -14.431993    24.955093    3.832337    -13.558331    1.713320    5.129387    3.668860    4.592961    -4.100757    3.020751    -8.861194    9.556097    -7.137827    6.486426    0.000000    0.000000    0.000000    -0.267423    -30.530163    -1.474844    12.668891    58.074165    -16.146927    3.490246    1.391188    -4.519620    0.000000    0.000000    0.000000    
36.532188    88.051041    25.577652    1.509213    -4.816422    92.874428    2.880510    -3.980715    -3.641446    1.488508    12.444977    -3.903944    -2.465421    12.507995    7.269318    -2.744742    -2.705493    7.198752    -2.358621    4.613384    2.205667    -19.062613    65.753120    -38.290058    10.759641    -14.984499    -35.906673    -9.495317    -11.410090    -2.096418    0.971433    7.295740    5.929978    28.521467    56.710823    36.510769    -3.529220    -14.319067    25.023159    3.566309    -13.510103    1.606194    5.165715    3.695315    4.584280    -4.093760    2.999250    -8.795484    9.484473    -7.101349    6.402774    0.000000    0.000000    0.000000    -0.174021    -30.509844    -1.324906    12.780048    58.068542    -16.287191    3.688701    1.193758    -4.330443    0.000000    0.000000    0.000000    
36.542606    88.069862    25.553135    1.511308    -4.865414    92.892303    2.882990    -4.007592    -3.676879    1.561651    12.472631    -3.948482    -2.317923    12.038541    7.425820    -2.958423    -1.963004    7.350391    -2.387276    4.610287    2.207906    -19.115927    65.819511    -38.233925    10.658797    -14.913085    -35.816040    -9.503676    -11.381822    -2.061635    0.940135    7.312352    5.925117    28.486202    56.887512    36.538300    -3.522876    -14.351620    25.043743    3.550941    -13.545555    1.545530    5.195294    3.703212    4.583978    -4.076420    2.983311    -8.719741    9.441002    -7.087007    6.298322    0.000000    0.000000    0.000000    -0.073566    -30.482948    -1.223670    12.756494    58.059639    -16.275566    3.835662    1.080052    -4.160691    0.000000    0.000000    0.000000    
36.559036    88.085114    25.532011    1.526504    -4.893291    92.892830    2.836977    -3.989516    -3.697516    1.689325    12.431958    -3.980425    -2.577288    12.610364    7.295578    -2.722609    -2.858892    7.227621    -2.466321    4.630551    2.164085    -19.274693    65.887810    -38.046513    10.568069    -14.826899    -35.698029    -9.687001    -11.335388    -2.020660    0.907197    7.358592    5.945784    28.621460    56.978291    36.390930    -3.562391    -14.340430    25.027580    3.810623    -13.519584    1.647606    5.209853    3.750295    4.508799    -4.080173    2.919860    -8.539146    9.376550    -7.054000    6.180793    0.000000    0.000000    0.000000    0.033201    -30.397184    -1.164331    12.563656    58.011387    -16.177553    3.969708    1.020305    -3.876951    0.000000    0.000000    0.000000    
36.575180    88.095917    25.511095    1.533831    -4.905454    92.894691    2.810701    -3.978574    -3.725627    1.746635    12.388481    -4.012908    -2.590319    12.669669    7.317204    -2.748870    -2.906799    7.243657    -2.505575    4.671707    2.133294    -19.450371    65.944916    -37.856064    10.489102    -14.755816    -35.608231    -9.668468    -11.306995    -1.908905    0.922118    7.392536    5.986980    28.700483    57.273666    36.284790    -3.834569    -14.461590    24.961224    3.828726    -13.586997    1.567422    5.205181    3.772539    4.522298    -4.066557    2.905702    -8.480283    9.304750    -7.045211    6.101296    0.000000    0.000000    0.000000    0.119734    -30.288567    -1.140860    12.317530    57.979584    -15.690860    4.057719    0.898628    -3.934484    0.000000    0.000000    0.000000    
